<svg width="364" height="1678" viewBox="0 0 364 1678" fill="none" xmlns="http://www.w3.org/2000/svg">
<g style="mix-blend-mode:overlay">
<mask id="path-1-outside-1_152_2" maskUnits="userSpaceOnUse" x="-7.47902e-05" y="-0.199234" width="364" height="1678" fill="black">
<rect fill="white" x="-7.47902e-05" y="-0.199234" width="364" height="1678"/>
<path d="M82 2.00077L276.4 2.00078L276.4 25.2008L252 25.2008L252 30.0008C260.8 33.7341 267.2 39.2008 271.2 46.4008C275.2 53.8675 277.2 64.1341 277.2 77.2008L277.2 100.001L254.8 100.001L254.8 74.4008C254.8 59.7341 250.667 48.0008 242.4 39.2008C234.133 30.4008 221.2 26.0008 203.6 26.0008L82 26.0008L82 2.00077ZM76.4 216.226C76.4 196.226 80.5333 178.759 88.8 163.826C97.3333 149.159 109.2 137.692 124.4 129.426C139.6 121.159 157.067 117.026 176.8 117.026L181.6 117.026C201.6 117.026 219.067 121.159 234 129.426C249.2 137.692 260.933 149.026 269.2 163.426C277.733 178.092 282 194.759 282 213.426C282 231.559 278.133 247.559 270.4 261.426C262.933 275.559 252 286.626 237.6 294.626C223.467 302.626 206.533 306.626 186.8 306.626L174 306.626L174 141.026C149.733 141.826 130.933 149.159 117.6 163.026C104.533 177.159 98 194.892 98 216.226C98 234.359 102.133 248.359 110.4 258.226C118.667 268.359 128.8 276.092 140.8 281.426L131.2 303.026C122.4 299.026 113.733 293.426 105.2 286.226C96.9333 279.292 90 270.226 84.4 259.026C79.0667 247.826 76.4 233.559 76.4 216.226ZM194.8 141.426L194.8 282.226C215.867 281.159 232 274.359 243.2 261.826C254.667 249.292 260.4 233.159 260.4 213.426C260.4 193.959 254.667 177.826 243.2 165.026C232 152.226 215.867 144.359 194.8 141.426ZM76.4 364.888C76.4 357.155 78.9333 350.622 84 345.288C89.0667 340.222 95.6 337.688 103.6 337.688C111.6 337.688 118.133 340.222 123.2 345.288C128.267 350.622 130.8 357.155 130.8 364.888C130.8 372.888 128.267 379.422 123.2 384.488C118.133 389.555 111.6 392.088 103.6 392.088C95.6 392.088 89.0666 389.555 84 384.488C78.9333 379.422 76.4 372.888 76.4 364.888ZM228.8 364.888C228.8 357.155 231.333 350.622 236.4 345.288C241.467 340.222 248 337.688 256 337.688C264 337.688 270.533 340.222 275.6 345.288C280.667 350.622 283.2 357.155 283.2 364.888C283.2 372.888 280.667 379.422 275.6 384.488C270.533 389.555 264 392.088 256 392.088C248 392.088 241.467 389.555 236.4 384.488C231.333 379.422 228.8 372.888 228.8 364.888ZM76.4 510.86C76.4 485.793 82 464.993 93.2 448.46C104.4 431.927 121.333 421.793 144 418.06L153.2 456.46C142.267 458.593 133.6 462.193 127.2 467.26C120.8 472.327 116.267 478.593 113.6 486.06C110.933 493.793 109.6 502.06 109.6 510.86C109.6 523.927 112.133 533.927 117.2 540.86C122.267 548.06 128.8 551.66 136.8 551.66C144.8 551.66 150.667 548.327 154.4 541.66C158.133 534.993 161.2 525.127 163.6 512.06L166 498.46C168.4 485.127 171.867 472.993 176.4 462.06C180.933 451.127 187.2 442.46 195.2 436.06C203.2 429.66 213.467 426.46 226 426.46C244.667 426.46 259.067 433.393 269.2 447.26C279.6 461.127 284.8 479.527 284.8 502.46C284.8 524.593 279.733 542.727 269.6 556.86C259.733 571.26 246.267 580.593 229.2 584.86L218.4 546.46C230.4 544.06 238.8 538.993 243.6 531.26C248.667 523.527 251.2 513.927 251.2 502.46C251.2 491.26 249.067 482.46 244.8 476.06C240.8 469.66 235.067 466.46 227.6 466.46C219.6 466.46 213.733 469.527 210 475.66C206.267 482.06 203.467 490.593 201.6 501.26L199.2 515.26C196.8 529.393 193.467 542.327 189.2 554.06C184.933 565.793 178.8 574.993 170.8 581.66C162.8 588.593 152.133 592.06 138.8 592.06C119.067 592.06 103.733 584.727 92.8 570.06C81.8666 555.393 76.4 535.66 76.4 510.86ZM76.4 683.854C76.4 669.721 78.8 657.054 83.6 645.854C88.4 634.921 95.4666 626.121 104.8 619.454C114.133 613.054 125.467 609.854 138.8 609.854C152.4 609.854 163.6 613.054 172.4 619.454C181.467 626.121 188.267 635.054 192.8 646.254C197.333 657.721 199.6 670.654 199.6 685.054L199.6 745.054L212.4 745.054C223.867 745.054 233.067 741.587 240 734.654C246.933 727.721 250.4 717.054 250.4 702.654C250.4 688.521 247.067 677.721 240.4 670.254C233.733 662.787 225.067 657.854 214.4 655.454L226.8 617.054C237.467 620.254 247.067 625.321 255.6 632.254C264.4 639.454 271.467 648.921 276.8 660.654C282.133 672.387 284.8 686.521 284.8 703.054C284.8 728.654 278.267 748.787 265.2 763.454C252.133 778.121 233.6 785.454 209.6 785.454L128.4 785.454C120.4 785.454 116.4 789.187 116.4 796.654L116.4 813.454L82 813.454L82 782.654C82 773.321 84.4 765.721 89.2 759.854C94 753.987 100.533 751.054 108.8 751.054L110 751.054L110 745.054C106 742.921 101.333 739.721 96 735.454C90.6666 731.187 86 724.921 82 716.654C78.2666 708.387 76.4 697.454 76.4 683.854ZM110.4 689.854C110.4 706.387 115.067 719.721 124.4 729.854C134 739.987 147.067 745.054 163.6 745.054L167.6 745.054L167.6 687.454C167.6 676.521 165.2 667.721 160.4 661.054C155.867 654.387 149.067 651.054 140 651.054C130.933 651.054 123.733 654.521 118.4 661.454C113.067 668.387 110.4 677.854 110.4 689.854ZM82 837.513L279.2 837.513L279.2 877.913L256 877.913L256 884.313C262.933 888.047 269.067 894.047 274.4 902.313C279.733 910.58 282.4 921.78 282.4 935.913C282.4 950.58 279.333 962.313 273.2 971.113C267.333 980.18 259.733 986.98 250.4 991.513L250.4 997.913C259.467 1002.45 267.067 1008.98 273.2 1017.51C279.333 1026.31 282.4 1038.71 282.4 1054.71C282.4 1067.51 279.733 1078.85 274.4 1088.71C269.333 1098.58 261.6 1106.45 251.2 1112.31C241.067 1118.18 228.4 1121.11 213.2 1121.11L81.9999 1121.11L82 1079.91L210 1079.91C222 1079.91 231.2 1076.58 237.6 1069.91C244.267 1063.51 247.6 1054.31 247.6 1042.31C247.6 1029.51 243.467 1019.25 235.2 1011.51C226.933 1003.78 215.067 999.913 199.6 999.913L82 999.913L82 958.713L210 958.713C222 958.713 231.2 955.38 237.6 948.713C244.267 942.313 247.6 933.113 247.6 921.113C247.6 908.313 243.467 898.047 235.2 890.313C226.933 882.58 215.067 878.713 199.6 878.713L82 878.713L82 837.513ZM1.99995 1164.48L279.2 1164.48L279.2 1204.88L250.8 1204.88L250.8 1211.28C259.6 1216.35 267.467 1223.95 274.4 1234.08C281.333 1244.48 284.8 1259.28 284.8 1278.48C284.8 1295.02 280.8 1310.08 272.8 1323.68C264.8 1337.55 253.2 1348.62 238 1356.88C223.067 1365.42 204.933 1369.68 183.6 1369.68L177.6 1369.68C156.267 1369.68 138 1365.55 122.8 1357.28C107.867 1349.02 96.3999 1337.95 88.3999 1324.08C80.3999 1310.22 76.3999 1295.02 76.3999 1278.48C76.3999 1265.68 77.9999 1254.88 81.1999 1246.08C84.3999 1237.28 88.3999 1230.22 93.1999 1224.88C98.2666 1219.55 103.467 1215.28 108.8 1212.08L108.8 1205.68L1.99994 1205.68L1.99995 1164.48ZM112.4 1266.48C112.4 1284.62 118.133 1299.42 129.6 1310.88C141.067 1322.35 157.467 1328.08 178.8 1328.08L182.4 1328.08C203.467 1328.08 219.733 1322.22 231.2 1310.48C242.667 1299.02 248.4 1284.35 248.4 1266.48C248.4 1248.88 242.667 1234.22 231.2 1222.48C219.733 1211.02 203.467 1205.28 182.4 1205.28L178.8 1205.28C157.467 1205.28 141.067 1211.02 129.6 1222.48C118.133 1234.22 112.4 1248.88 112.4 1266.48ZM81.9999 1404.73L362 1404.73L362 1445.93L81.9999 1445.93L81.9999 1404.73ZM76.3999 1581.48C76.3999 1561.48 80.5333 1544.01 88.7999 1529.08C97.3333 1514.14 109.2 1502.41 124.4 1493.88C139.867 1485.61 157.733 1481.48 178 1481.48L182.8 1481.48C203.333 1481.48 221.2 1485.61 236.4 1493.88C251.867 1502.14 263.733 1513.61 272 1528.28C280.533 1543.21 284.8 1560.41 284.8 1579.88C284.8 1598.81 280.533 1615.34 272 1629.48C263.733 1643.88 252.133 1655.08 237.2 1663.08C222.267 1671.08 204.8 1675.08 184.8 1675.08L169.2 1675.08L169.2 1523.48C151.867 1524.01 138 1529.74 127.6 1540.68C117.467 1551.88 112.4 1565.74 112.4 1582.28C112.4 1597.74 115.867 1609.34 122.8 1617.08C129.733 1625.08 137.733 1631.21 146.8 1635.48L129.2 1669.48C121.733 1665.74 113.867 1660.28 105.6 1653.08C97.3333 1646.14 90.3999 1636.94 84.7999 1625.48C79.1999 1614.01 76.3999 1599.34 76.3999 1581.48ZM200.8 1523.88L200.8 1633.08C215.733 1632.01 227.333 1626.68 235.6 1617.08C244.133 1607.48 248.4 1594.94 248.4 1579.48C248.4 1564.01 244.133 1551.34 235.6 1541.48C227.333 1531.88 215.733 1526.01 200.8 1523.88Z"/>
</mask>
<path d="M82 2.00077L82 0.000772325L80 0.000772237L80 2.00077L82 2.00077ZM276.4 2.00078L278.4 2.00078L278.4 0.00078091L276.4 0.000780822L276.4 2.00078ZM276.4 25.2008L276.4 27.2008L278.4 27.2008L278.4 25.2008L276.4 25.2008ZM252 25.2008L252 23.2008L250 23.2008L250 25.2008L252 25.2008ZM252 30.0008L250 30.0008L250 31.3248L251.219 31.8419L252 30.0008ZM271.2 46.4008L272.963 45.4563L272.956 45.4429L272.948 45.4295L271.2 46.4008ZM277.2 100.001L277.2 102.001L279.2 102.001L279.2 100.001L277.2 100.001ZM254.8 100.001L252.8 100.001L252.8 102.001L254.8 102.001L254.8 100.001ZM242.4 39.2008L243.858 37.8314L243.858 37.8314L242.4 39.2008ZM82 26.0008L80 26.0008L80 28.0008L82 28.0008L82 26.0008ZM82 2.00077L82 4.00077L276.4 4.00078L276.4 2.00078L276.4 0.000780822L82 0.000772325L82 2.00077ZM276.4 2.00078L274.4 2.00078L274.4 25.2008L276.4 25.2008L278.4 25.2008L278.4 2.00078L276.4 2.00078ZM276.4 25.2008L276.4 23.2008L252 23.2008L252 25.2008L252 27.2008L276.4 27.2008L276.4 25.2008ZM252 25.2008L250 25.2008L250 30.0008L252 30.0008L254 30.0008L254 25.2008L252 25.2008ZM252 30.0008L251.219 31.8419C259.677 35.4304 265.702 40.6224 269.452 47.3721L271.2 46.4008L272.948 45.4295C268.698 37.7792 261.923 32.0378 252.781 28.1596L252 30.0008ZM271.2 46.4008L269.437 47.3452C273.219 54.4056 275.2 64.3009 275.2 77.2008L277.2 77.2008L279.2 77.2008C279.2 63.9673 277.181 53.3293 272.963 45.4563L271.2 46.4008ZM277.2 77.2008L275.2 77.2008L275.2 100.001L277.2 100.001L279.2 100.001L279.2 77.2008L277.2 77.2008ZM277.2 100.001L277.2 98.0008L254.8 98.0008L254.8 100.001L254.8 102.001L277.2 102.001L277.2 100.001ZM254.8 100.001L256.8 100.001L256.8 74.4008L254.8 74.4008L252.8 74.4008L252.8 100.001L254.8 100.001ZM254.8 74.4008L256.8 74.4008C256.8 59.3407 252.544 47.0786 243.858 37.8314L242.4 39.2008L240.942 40.5701C248.789 48.923 252.8 60.1275 252.8 74.4008L254.8 74.4008ZM242.4 39.2008L243.858 37.8314C235.068 28.4748 221.497 24.0008 203.6 24.0008L203.6 26.0008L203.6 28.0008C220.903 28.0008 233.199 32.3268 240.942 40.5701L242.4 39.2008ZM203.6 26.0008L203.6 24.0008L82 24.0008L82 26.0008L82 28.0008L203.6 28.0008L203.6 26.0008ZM82 26.0008L84 26.0008L84 2.00077L82 2.00077L80 2.00077L80 26.0008L82 26.0008ZM88.8 163.826L87.0713 162.82L87.0606 162.838L87.0502 162.857L88.8 163.826ZM124.4 129.426L125.356 131.183L125.356 131.183L124.4 129.426ZM234 129.426L233.031 131.176L233.038 131.179L233.044 131.183L234 129.426ZM269.2 163.426L267.465 164.422L267.471 164.432L269.2 163.426ZM270.4 261.426L268.653 260.452L268.642 260.471L268.632 260.492L270.4 261.426ZM237.6 294.626L236.629 292.877L236.622 292.881L236.615 292.885L237.6 294.626ZM174 306.626L172 306.626L172 308.626L174 308.626L174 306.626ZM174 141.026L176 141.026L176 138.959L173.934 139.027L174 141.026ZM117.6 163.026L116.158 161.64L116.145 161.654L116.131 161.668L117.6 163.026ZM110.4 258.226L111.95 256.962L111.941 256.951L111.933 256.941L110.4 258.226ZM140.8 281.426L142.628 282.238L143.44 280.41L141.612 279.598L140.8 281.426ZM131.2 303.026L130.372 304.847L132.208 305.681L133.028 303.838L131.2 303.026ZM105.2 286.226L106.49 284.697L106.485 284.693L105.2 286.226ZM84.4 259.026L82.5943 259.886L82.6025 259.903L82.6111 259.92L84.4 259.026ZM194.8 141.426L195.076 139.445L192.8 139.128L192.8 141.426L194.8 141.426ZM194.8 282.226L192.8 282.226L192.8 284.33L194.901 284.223L194.8 282.226ZM243.2 261.826L241.724 260.476L241.716 260.484L241.709 260.493L243.2 261.826ZM243.2 165.026L241.695 166.343L241.703 166.352L241.71 166.36L243.2 165.026ZM76.4 216.226L78.4 216.226C78.4 196.506 82.4734 179.384 90.5498 164.794L88.8 163.826L87.0502 162.857C78.5933 178.134 74.4 195.945 74.4 216.226L76.4 216.226ZM88.8 163.826L90.5287 164.832C98.8741 150.488 110.47 139.278 125.356 131.183L124.4 129.426L123.444 127.669C107.93 136.107 95.7925 147.83 87.0713 162.82L88.8 163.826ZM124.4 129.426L125.356 131.183C140.223 123.097 157.353 119.026 176.8 119.026L176.8 117.026L176.8 115.026C156.78 115.026 138.977 119.221 123.444 127.669L124.4 129.426ZM176.8 117.026L176.8 119.026L181.6 119.026L181.6 117.026L181.6 115.026L176.8 115.026L176.8 117.026ZM181.6 117.026L181.6 119.026C201.32 119.026 218.442 123.099 233.031 131.176L234 129.426L234.969 127.676C219.692 119.219 201.88 115.026 181.6 115.026L181.6 117.026ZM234 129.426L233.044 131.183C247.934 139.28 259.391 150.356 267.465 164.422L269.2 163.426L270.935 162.43C262.476 147.695 250.466 136.104 234.956 127.669L234 129.426ZM269.2 163.426L267.471 164.432C275.81 178.763 280 195.076 280 213.426L282 213.426L284 213.426C284 194.442 279.657 177.422 270.929 162.42L269.2 163.426ZM282 213.426L280 213.426C280 231.267 276.198 246.923 268.653 260.452L270.4 261.426L272.147 262.4C280.069 248.195 284 231.851 284 213.426L282 213.426ZM270.4 261.426L268.632 260.492C261.352 274.271 250.701 285.06 236.629 292.877L237.6 294.626L238.571 296.374C253.299 288.192 264.515 276.847 272.168 262.36L270.4 261.426ZM237.6 294.626L236.615 292.885C222.84 300.682 206.262 304.626 186.8 304.626L186.8 306.626L186.8 308.626C206.805 308.626 224.093 304.569 238.585 296.366L237.6 294.626ZM186.8 306.626L186.8 304.626L174 304.626L174 306.626L174 308.626L186.8 308.626L186.8 306.626ZM174 306.626L176 306.626L176 141.026L174 141.026L172 141.026L172 306.626L174 306.626ZM174 141.026L173.934 139.027C149.29 139.839 129.941 147.305 116.158 161.64L117.6 163.026L119.042 164.412C131.925 151.013 150.177 143.812 174.066 143.025L174 141.026ZM117.6 163.026L116.131 161.668C102.685 176.212 96 194.448 96 216.226L98 216.226L100 216.226C100 195.337 106.382 178.106 119.069 164.383L117.6 163.026ZM98 216.226L96 216.226C96 234.639 100.196 249.161 108.867 259.51L110.4 258.226L111.933 256.941C104.071 247.557 100 234.079 100 216.226L98 216.226ZM110.4 258.226L108.85 259.49C117.316 269.867 127.702 277.793 139.988 283.253L140.8 281.426L141.612 279.598C129.898 274.392 120.017 266.851 111.95 256.962L110.4 258.226ZM140.8 281.426L138.972 280.614L129.372 302.214L131.2 303.026L133.028 303.838L142.628 282.238L140.8 281.426ZM131.2 303.026L132.028 301.205C123.418 297.291 114.904 291.797 106.49 284.697L105.2 286.226L103.91 287.754C112.562 295.055 121.382 300.76 130.372 304.847L131.2 303.026ZM105.2 286.226L106.485 284.693C98.4593 277.962 91.6859 269.125 86.1888 258.131L84.4 259.026L82.6111 259.92C88.3141 271.326 95.4073 280.623 103.915 287.758L105.2 286.226ZM84.4 259.026L86.2057 258.166C81.0406 247.319 78.4 233.372 78.4 216.226L76.4 216.226L74.4 216.226C74.4 233.746 77.0927 248.332 82.5943 259.886L84.4 259.026ZM194.8 141.426L192.8 141.426L192.8 282.226L194.8 282.226L196.8 282.226L196.8 141.426L194.8 141.426ZM194.8 282.226L194.901 284.223C216.358 283.137 233.05 276.186 244.691 263.158L243.2 261.826L241.709 260.493C230.95 272.532 215.376 279.181 194.699 280.228L194.8 282.226ZM243.2 261.826L244.676 263.176C256.534 250.215 262.4 233.573 262.4 213.426L260.4 213.426L258.4 213.426C258.4 232.746 252.8 248.37 241.724 260.476L243.2 261.826ZM260.4 213.426L262.4 213.426C262.4 193.537 256.529 176.907 244.69 163.691L243.2 165.026L241.71 166.36C252.804 178.744 258.4 194.382 258.4 213.426L260.4 213.426ZM243.2 165.026L244.705 163.709C233.115 150.463 216.495 142.427 195.076 139.445L194.8 141.426L194.524 143.407C215.238 146.291 230.885 153.989 241.695 166.343L243.2 165.026ZM84 345.288L82.5858 343.874L82.5676 343.892L82.55 343.911L84 345.288ZM123.2 345.288L124.65 343.911L124.632 343.892L124.614 343.874L123.2 345.288ZM123.2 384.488L124.614 385.902L124.614 385.902L123.2 384.488ZM84 384.488L82.5858 385.902L82.5858 385.902L84 384.488ZM236.4 345.288L234.986 343.874L234.968 343.892L234.95 343.911L236.4 345.288ZM275.6 345.288L277.05 343.911L277.032 343.892L277.014 343.874L275.6 345.288ZM275.6 384.488L277.014 385.902L277.014 385.902L275.6 384.488ZM236.4 384.488L234.986 385.902L234.986 385.902L236.4 384.488ZM76.4 364.888L78.4 364.888C78.4 357.639 80.7559 351.607 85.45 346.666L84 345.288L82.55 343.911C77.1107 349.636 74.4 356.671 74.4 364.888L76.4 364.888ZM84 345.288L85.4142 346.702C90.0606 342.056 96.0628 339.688 103.6 339.688L103.6 337.688L103.6 335.688C95.1371 335.688 88.0727 338.387 82.5858 343.874L84 345.288ZM103.6 337.688L103.6 339.688C111.137 339.688 117.139 342.056 121.786 346.702L123.2 345.288L124.614 343.874C119.127 338.387 112.063 335.688 103.6 335.688L103.6 337.688ZM123.2 345.288L121.75 346.666C126.444 351.607 128.8 357.639 128.8 364.888L130.8 364.888L132.8 364.888C132.8 356.671 130.089 349.636 124.65 343.911L123.2 345.288ZM130.8 364.888L128.8 364.888C128.8 372.425 126.432 378.428 121.786 383.074L123.2 384.488L124.614 385.902C130.101 380.416 132.8 373.351 132.8 364.888L130.8 364.888ZM123.2 384.488L121.786 383.074C117.139 387.72 111.137 390.088 103.6 390.088L103.6 392.088L103.6 394.088C112.063 394.088 119.127 391.389 124.614 385.902L123.2 384.488ZM103.6 392.088L103.6 390.088C96.0628 390.088 90.0606 387.72 85.4142 383.074L84 384.488L82.5858 385.902C88.0727 391.389 95.1371 394.088 103.6 394.088L103.6 392.088ZM84 384.488L85.4142 383.074C80.7678 378.428 78.4 372.425 78.4 364.888L76.4 364.888L74.4 364.888C74.4 373.351 77.0988 380.416 82.5858 385.902L84 384.488ZM228.8 364.888L230.8 364.888C230.8 357.639 233.156 351.607 237.85 346.666L236.4 345.288L234.95 343.911C229.511 349.636 226.8 356.671 226.8 364.888L228.8 364.888ZM236.4 345.288L237.814 346.702C242.461 342.056 248.463 339.688 256 339.688L256 337.688L256 335.688C247.537 335.688 240.473 338.387 234.986 343.874L236.4 345.288ZM256 337.688L256 339.688C263.537 339.688 269.539 342.056 274.186 346.702L275.6 345.288L277.014 343.874C271.527 338.387 264.463 335.688 256 335.688L256 337.688ZM275.6 345.288L274.15 346.666C278.844 351.607 281.2 357.639 281.2 364.888L283.2 364.888L285.2 364.888C285.2 356.671 282.489 349.636 277.05 343.911L275.6 345.288ZM283.2 364.888L281.2 364.888C281.2 372.425 278.832 378.428 274.186 383.074L275.6 384.488L277.014 385.902C282.501 380.416 285.2 373.351 285.2 364.888L283.2 364.888ZM275.6 384.488L274.186 383.074C269.539 387.72 263.537 390.088 256 390.088L256 392.088L256 394.088C264.463 394.088 271.527 391.389 277.014 385.902L275.6 384.488ZM256 392.088L256 390.088C248.463 390.088 242.461 387.72 237.814 383.074L236.4 384.488L234.986 385.902C240.473 391.389 247.537 394.088 256 394.088L256 392.088ZM236.4 384.488L237.814 383.074C233.168 378.428 230.8 372.425 230.8 364.888L228.8 364.888L226.8 364.888C226.8 373.351 229.499 380.416 234.986 385.902L236.4 384.488ZM93.2 448.46L94.8558 449.582L93.2 448.46ZM144 418.06L145.945 417.594L145.511 415.784L143.675 416.087L144 418.06ZM153.2 456.46L153.583 458.423L155.631 458.023L155.145 455.994L153.2 456.46ZM127.2 467.26L128.441 468.828L128.441 468.828L127.2 467.26ZM113.6 486.06L111.716 485.387L111.713 485.398L111.709 485.408L113.6 486.06ZM117.2 540.86L118.836 539.709L118.825 539.695L118.815 539.68L117.2 540.86ZM163.6 512.06L165.567 512.421L165.57 512.408L163.6 512.06ZM166 498.46L164.032 498.106L164.03 498.113L166 498.46ZM176.4 462.06L174.553 461.294L174.553 461.294L176.4 462.06ZM195.2 436.06L196.449 437.622L196.449 437.622L195.2 436.06ZM269.2 447.26L267.585 448.44L267.593 448.45L267.6 448.46L269.2 447.26ZM269.6 556.86L267.975 555.695L267.962 555.712L267.95 555.73L269.6 556.86ZM229.2 584.86L227.275 585.402L227.801 587.272L229.685 586.8L229.2 584.86ZM218.4 546.46L218.008 544.499L215.89 544.923L216.475 547.002L218.4 546.46ZM243.6 531.26L241.927 530.164L241.914 530.185L241.901 530.205L243.6 531.26ZM244.8 476.06L243.104 477.12L243.12 477.145L243.136 477.17L244.8 476.06ZM210 475.66L208.292 474.62L208.282 474.636L208.272 474.652L210 475.66ZM201.6 501.26L199.63 500.915L199.629 500.922L201.6 501.26ZM199.2 515.26L197.229 514.922L197.228 514.925L199.2 515.26ZM170.8 581.66L169.52 580.124L169.505 580.136L169.49 580.149L170.8 581.66ZM92.8 570.06L91.1965 571.255L91.1965 571.255L92.8 570.06ZM76.4 510.86L78.4 510.86C78.4 486.091 83.9313 465.708 94.8558 449.582L93.2 448.46L91.5441 447.338C80.0686 464.278 74.4 485.496 74.4 510.86L76.4 510.86ZM93.2 448.46L94.8558 449.582C105.701 433.573 122.111 423.692 144.325 420.034L144 418.06L143.675 416.087C120.556 419.895 103.099 430.281 91.5441 447.338L93.2 448.46ZM144 418.06L142.055 418.526L151.255 456.926L153.2 456.46L155.145 455.994L145.945 417.594L144 418.06ZM153.2 456.46L152.817 454.497C141.679 456.67 132.683 460.368 125.959 465.692L127.2 467.26L128.441 468.828C134.517 464.019 142.855 460.516 153.583 458.423L153.2 456.46ZM127.2 467.26L125.959 465.692C119.274 470.984 114.513 477.557 111.716 485.387L113.6 486.06L115.483 486.733C118.02 479.63 122.326 473.67 128.441 468.828L127.2 467.26ZM113.6 486.06L111.709 485.408C108.965 493.367 107.6 501.855 107.6 510.86L109.6 510.86L111.6 510.86C111.6 502.265 112.902 494.22 115.491 486.712L113.6 486.06ZM109.6 510.86L107.6 510.86C107.6 524.143 110.168 534.627 115.585 542.04L117.2 540.86L118.815 539.68C114.098 533.226 111.6 523.711 111.6 510.86L109.6 510.86ZM117.2 540.86L115.564 542.011C120.962 549.681 128.076 553.66 136.8 553.66L136.8 551.66L136.8 549.66C129.524 549.66 123.572 546.439 118.836 539.709L117.2 540.86ZM136.8 551.66L136.8 553.66C145.482 553.66 152.038 549.972 156.145 542.637L154.4 541.66L152.655 540.683C149.295 546.682 144.118 549.66 136.8 549.66L136.8 551.66ZM154.4 541.66L156.145 542.637C160.037 535.688 163.152 525.569 165.567 512.421L163.6 512.06L161.633 511.699C159.248 524.684 156.23 534.299 152.655 540.683L154.4 541.66ZM163.6 512.06L165.57 512.408L167.97 498.808L166 498.46L164.03 498.113L161.63 511.713L163.6 512.06ZM166 498.46L167.968 498.814C170.347 485.602 173.776 473.61 178.247 462.826L176.4 462.06L174.553 461.294C169.957 472.377 166.453 484.651 164.032 498.106L166 498.46ZM176.4 462.06L178.247 462.826C182.672 452.155 188.751 443.781 196.449 437.622L195.2 436.06L193.951 434.498C185.649 441.14 179.195 450.098 174.553 461.294L176.4 462.06ZM195.2 436.06L196.449 437.622C204.021 431.565 213.816 428.46 226 428.46L226 426.46L226 424.46C213.117 424.46 202.379 427.756 193.951 434.498L195.2 436.06ZM226 426.46L226 428.46C244.093 428.46 257.865 435.139 267.585 448.44L269.2 447.26L270.815 446.08C260.268 431.648 245.24 424.46 226 424.46L226 426.46ZM269.2 447.26L267.6 448.46C277.668 461.884 282.8 479.82 282.8 502.46L284.8 502.46L286.8 502.46C286.8 479.233 281.532 460.37 270.8 446.06L269.2 447.26ZM284.8 502.46L282.8 502.46C282.8 524.29 277.805 541.984 267.975 555.695L269.6 556.86L271.225 558.026C281.661 543.47 286.8 524.897 286.8 502.46L284.8 502.46ZM269.6 556.86L267.95 555.73C258.362 569.723 245.311 578.771 228.715 582.92L229.2 584.86L229.685 586.8C247.222 582.416 261.105 572.797 271.25 557.991L269.6 556.86ZM229.2 584.86L231.125 584.319L220.325 545.919L218.4 546.46L216.475 547.002L227.275 585.402L229.2 584.86ZM218.4 546.46L218.792 548.421C231.14 545.952 240.117 540.663 245.299 532.315L243.6 531.26L241.901 530.205C237.483 537.323 229.66 542.169 218.008 544.499L218.4 546.46ZM243.6 531.26L245.273 532.356C250.599 524.227 253.2 514.222 253.2 502.46L251.2 502.46L249.2 502.46C249.2 513.631 246.734 522.827 241.927 530.164L243.6 531.26ZM251.2 502.46L253.2 502.46C253.2 491.036 251.028 481.797 246.464 474.951L244.8 476.06L243.136 477.17C247.105 483.123 249.2 491.484 249.2 502.46L251.2 502.46ZM244.8 476.06L246.496 475C242.135 468.023 235.765 464.46 227.6 464.46L227.6 466.46L227.6 468.46C234.368 468.46 239.465 471.297 243.104 477.12L244.8 476.06ZM227.6 466.46L227.6 464.46C218.997 464.46 212.435 467.814 208.292 474.62L210 475.66L211.708 476.7C215.032 471.24 220.203 468.46 227.6 468.46L227.6 466.46ZM210 475.66L208.272 474.652C204.378 481.329 201.52 490.113 199.63 500.915L201.6 501.26L203.57 501.605C205.413 491.074 208.155 482.792 211.728 476.668L210 475.66ZM201.6 501.26L199.629 500.922L197.229 514.922L199.2 515.26L201.171 515.598L203.571 501.598L201.6 501.26ZM199.2 515.26L197.228 514.925C194.845 528.957 191.54 541.772 187.32 553.377L189.2 554.06L191.08 554.744C195.393 542.882 198.754 529.83 201.172 515.595L199.2 515.26ZM189.2 554.06L187.32 553.377C183.15 564.844 177.199 573.725 169.52 580.124L170.8 581.66L172.08 583.197C180.401 576.262 186.716 566.743 191.08 554.744L189.2 554.06ZM170.8 581.66L169.49 580.149C161.941 586.692 151.781 590.06 138.8 590.06L138.8 592.06L138.8 594.06C152.486 594.06 163.659 590.495 172.11 583.172L170.8 581.66ZM138.8 592.06L138.8 590.06C119.64 590.06 104.926 582.981 94.4035 568.865L92.8 570.06L91.1965 571.255C102.541 586.473 118.493 594.06 138.8 594.06L138.8 592.06ZM92.8 570.06L94.4035 568.865C83.8052 554.648 78.4 535.381 78.4 510.86L76.4 510.86L74.4 510.86C74.4 535.94 79.928 556.139 91.1965 571.255L92.8 570.06ZM83.6 645.854L81.7687 645.05L81.7651 645.058L81.7617 645.066L83.6 645.854ZM104.8 619.454L103.669 617.804L103.653 617.815L103.637 617.826L104.8 619.454ZM172.4 619.454L173.585 617.843L173.576 617.836L172.4 619.454ZM192.8 646.254L194.66 645.519L194.657 645.511L194.654 645.504L192.8 646.254ZM199.6 745.054L197.6 745.054L197.6 747.054L199.6 747.054L199.6 745.054ZM240 734.654L238.586 733.24L238.586 733.24L240 734.654ZM214.4 655.454L212.497 654.839L211.824 656.924L213.961 657.405L214.4 655.454ZM226.8 617.054L227.375 615.138L225.499 614.575L224.897 616.439L226.8 617.054ZM255.6 632.254L256.866 630.706L256.861 630.702L255.6 632.254ZM276.8 660.654L274.979 661.482L276.8 660.654ZM265.2 763.454L266.693 764.784L266.693 764.784L265.2 763.454ZM116.4 813.454L116.4 815.454L118.4 815.454L118.4 813.454L116.4 813.454ZM82 813.454L80 813.454L80 815.454L82 815.454L82 813.454ZM89.2 759.854L90.7479 761.12L90.7479 761.12L89.2 759.854ZM110 751.054L110 753.054L112 753.054L112 751.054L110 751.054ZM110 745.054L112 745.054L112 743.854L110.941 743.289L110 745.054ZM96 735.454L94.7506 737.016L94.7506 737.016L96 735.454ZM82 716.654L80.1772 717.477L80.1881 717.501L80.1996 717.525L82 716.654ZM124.4 729.854L122.929 731.209L122.938 731.219L122.948 731.229L124.4 729.854ZM167.6 745.054L167.6 747.054L169.6 747.054L169.6 745.054L167.6 745.054ZM160.4 661.054L158.746 662.179L158.761 662.201L158.777 662.223L160.4 661.054ZM76.4 683.854L78.4 683.854C78.4 669.949 80.7606 657.556 85.4383 646.642L83.6 645.854L81.7617 645.066C76.8393 656.552 74.4 669.493 74.4 683.854L76.4 683.854ZM83.6 645.854L85.4313 646.658C90.0927 636.04 96.9344 627.53 105.962 621.081L104.8 619.454L103.637 617.826C93.9988 624.711 86.7072 633.801 81.7687 645.05L83.6 645.854ZM104.8 619.454L105.931 621.103C114.875 614.97 125.797 611.854 138.8 611.854L138.8 609.854L138.8 607.854C125.137 607.854 113.391 611.138 103.669 617.804L104.8 619.454ZM138.8 609.854L138.8 611.854C152.084 611.854 162.843 614.976 171.224 621.071L172.4 619.454L173.576 617.836C164.357 611.132 152.716 607.854 138.8 607.854L138.8 609.854ZM172.4 619.454L171.215 621.065C179.961 627.496 186.541 636.121 190.946 647.004L192.8 646.254L194.654 645.504C189.992 633.986 182.972 624.745 173.585 617.843L172.4 619.454ZM192.8 646.254L190.94 646.989C195.367 658.186 197.6 670.864 197.6 685.054L199.6 685.054L201.6 685.054C201.6 670.444 199.3 657.255 194.66 645.519L192.8 646.254ZM199.6 685.054L197.6 685.054L197.6 745.054L199.6 745.054L201.6 745.054L201.6 685.054L199.6 685.054ZM199.6 745.054L199.6 747.054L212.4 747.054L212.4 745.054L212.4 743.054L199.6 743.054L199.6 745.054ZM212.4 745.054L212.4 747.054C224.3 747.054 234.042 743.44 241.414 736.068L240 734.654L238.586 733.24C232.091 739.735 223.433 743.054 212.4 743.054L212.4 745.054ZM240 734.654L241.414 736.068C248.867 728.615 252.4 717.337 252.4 702.654L250.4 702.654L248.4 702.654C248.4 716.771 244.999 726.826 238.586 733.24L240 734.654ZM250.4 702.654L252.4 702.654C252.4 688.231 248.999 676.882 241.892 668.922L240.4 670.254L238.908 671.586C245.134 678.559 248.4 688.811 248.4 702.654L250.4 702.654ZM240.4 670.254L241.892 668.922C234.922 661.115 225.873 655.985 214.839 653.503L214.4 655.454L213.961 657.405C224.26 659.722 232.545 664.459 238.908 671.586L240.4 670.254ZM214.4 655.454L216.303 656.068L228.703 617.668L226.8 617.054L224.897 616.439L212.497 654.839L214.4 655.454ZM226.8 617.054L226.225 618.97C236.645 622.095 246.011 627.04 254.339 633.806L255.6 632.254L256.861 630.702C248.122 623.601 238.288 618.412 227.375 615.138L226.8 617.054ZM255.6 632.254L254.334 633.802C262.866 640.783 269.756 649.99 274.979 661.482L276.8 660.654L278.621 659.826C273.177 647.851 265.934 638.125 256.866 630.706L255.6 632.254ZM276.8 660.654L274.979 661.482C280.166 672.892 282.8 686.728 282.8 703.054L284.8 703.054L286.8 703.054C286.8 686.313 284.101 671.882 278.621 659.826L276.8 660.654ZM284.8 703.054L282.8 703.054C282.8 728.316 276.358 747.923 263.707 762.124L265.2 763.454L266.693 764.784C280.175 749.652 286.8 728.992 286.8 703.054L284.8 703.054ZM265.2 763.454L263.707 762.124C251.102 776.271 233.167 783.454 209.6 783.454L209.6 785.454L209.6 787.454C234.033 787.454 253.165 779.97 266.693 764.784L265.2 763.454ZM209.6 785.454L209.6 783.454L128.4 783.454L128.4 785.454L128.4 787.454L209.6 787.454L209.6 785.454ZM128.4 785.454L128.4 783.454C124.125 783.454 120.546 784.449 118.035 786.792C115.499 789.159 114.4 792.576 114.4 796.654L116.4 796.654L118.4 796.654C118.4 793.266 119.301 791.082 120.765 789.716C122.254 788.326 124.675 787.454 128.4 787.454L128.4 785.454ZM116.4 796.654L114.4 796.654L114.4 813.454L116.4 813.454L118.4 813.454L118.4 796.654L116.4 796.654ZM116.4 813.454L116.4 811.454L82 811.454L82 813.454L82 815.454L116.4 815.454L116.4 813.454ZM82 813.454L84 813.454L84 782.654L82 782.654L80 782.654L80 813.454L82 813.454ZM82 782.654L84 782.654C84 773.672 86.3031 766.553 90.7479 761.12L89.2 759.854L87.6521 758.587C82.4968 764.888 80 772.969 80 782.654L82 782.654ZM89.2 759.854L90.7479 761.12C95.1305 755.764 101.071 753.054 108.8 753.054L108.8 751.054L108.8 749.054C99.9953 749.054 92.8694 752.211 87.6521 758.587L89.2 759.854ZM108.8 751.054L108.8 753.054L110 753.054L110 751.054L110 749.054L108.8 749.054L108.8 751.054ZM110 751.054L112 751.054L112 745.054L110 745.054L108 745.054L108 751.054L110 751.054ZM110 745.054L110.941 743.289C107.09 741.235 102.53 738.116 97.2494 733.892L96 735.454L94.7506 737.016C100.137 741.325 104.91 744.606 109.059 746.819L110 745.054ZM96 735.454L97.2494 733.892C92.2147 729.864 87.7129 723.869 83.8003 715.783L82 716.654L80.1996 717.525C84.287 725.972 89.1186 732.51 94.7506 737.016L96 735.454ZM82 716.654L83.8227 715.831C80.2496 707.919 78.4 697.299 78.4 683.854L76.4 683.854L74.4 683.854C74.4 697.609 76.2836 708.856 80.1772 717.477L82 716.654ZM110.4 689.854L108.4 689.854C108.4 706.783 113.19 720.635 122.929 731.209L124.4 729.854L125.871 728.499C116.944 718.806 112.4 705.991 112.4 689.854L110.4 689.854ZM124.4 729.854L122.948 731.229C132.995 741.835 146.627 747.054 163.6 747.054L163.6 745.054L163.6 743.054C147.506 743.054 135.005 738.14 125.852 728.478L124.4 729.854ZM163.6 745.054L163.6 747.054L167.6 747.054L167.6 745.054L167.6 743.054L163.6 743.054L163.6 745.054ZM167.6 745.054L169.6 745.054L169.6 687.454L167.6 687.454L165.6 687.454L165.6 745.054L167.6 745.054ZM167.6 687.454L169.6 687.454C169.6 676.238 167.138 666.989 162.023 659.885L160.4 661.054L158.777 662.223C163.262 668.452 165.6 676.803 165.6 687.454L167.6 687.454ZM160.4 661.054L162.054 659.929C157.097 652.64 149.632 649.054 140 649.054L140 651.054L140 653.054C148.501 653.054 154.636 656.135 158.746 662.179L160.4 661.054ZM140 651.054L140 649.054C130.339 649.054 122.543 652.788 116.815 660.234L118.4 661.454L119.985 662.673C124.924 656.253 131.528 653.054 140 653.054L140 651.054ZM118.4 661.454L116.815 660.234C111.128 667.627 108.4 677.575 108.4 689.854L110.4 689.854L112.4 689.854C112.4 678.133 115.005 669.147 119.985 662.673L118.4 661.454ZM82 837.513L82 835.513L80 835.513L80 837.513L82 837.513ZM279.2 837.513L281.2 837.513L281.2 835.513L279.2 835.513L279.2 837.513ZM279.2 877.913L279.2 879.913L281.2 879.913L281.2 877.913L279.2 877.913ZM256 877.913L256 875.913L254 875.913L254 877.913L256 877.913ZM256 884.313L254 884.313L254 885.508L255.052 886.074L256 884.313ZM274.4 902.313L276.081 901.229L276.081 901.229L274.4 902.313ZM273.2 971.113L271.559 969.97L271.54 969.998L271.521 970.027L273.2 971.113ZM250.4 991.513L249.526 989.714L248.4 990.261L248.4 991.513L250.4 991.513ZM250.4 997.913L248.4 997.913L248.4 999.149L249.506 999.702L250.4 997.913ZM273.2 1017.51L274.841 1016.37L274.832 1016.36L274.824 1016.35L273.2 1017.51ZM274.4 1088.71L272.641 1087.76L272.63 1087.78L272.621 1087.8L274.4 1088.71ZM251.2 1112.31L250.217 1110.57L250.208 1110.58L250.198 1110.58L251.2 1112.31ZM81.9999 1121.11L79.9999 1121.11L79.9999 1123.11L81.9999 1123.11L81.9999 1121.11ZM82 1079.91L82 1077.91L80 1077.91L80 1079.91L82 1079.91ZM237.6 1069.91L236.215 1068.47L236.185 1068.5L236.157 1068.53L237.6 1069.91ZM235.2 1011.51L233.834 1012.97L233.834 1012.97L235.2 1011.51ZM82 999.913L80 999.913L80 1001.91L82 1001.91L82 999.913ZM82 958.713L82 956.713L80 956.713L80 958.713L82 958.713ZM237.6 948.713L236.215 947.271L236.185 947.299L236.157 947.328L237.6 948.713ZM235.2 890.313L233.834 891.774L233.834 891.774L235.2 890.313ZM82 878.713L80 878.713L80 880.713L82 880.713L82 878.713ZM82 837.513L82 839.513L279.2 839.513L279.2 837.513L279.2 835.513L82 835.513L82 837.513ZM279.2 837.513L277.2 837.513L277.2 877.913L279.2 877.913L281.2 877.913L281.2 837.513L279.2 837.513ZM279.2 877.913L279.2 875.913L256 875.913L256 877.913L256 879.913L279.2 879.913L279.2 877.913ZM256 877.913L254 877.913L254 884.313L256 884.313L258 884.313L258 877.913L256 877.913ZM256 884.313L255.052 886.074C261.622 889.612 267.524 895.345 272.719 903.398L274.4 902.313L276.081 901.229C270.609 892.748 264.244 886.481 256.948 882.552L256 884.313ZM274.4 902.313L272.719 903.398C277.772 911.229 280.4 922.005 280.4 935.913L282.4 935.913L284.4 935.913C284.4 921.555 281.695 909.931 276.081 901.229L274.4 902.313ZM282.4 935.913L280.4 935.913C280.4 950.318 277.387 961.608 271.559 969.97L273.2 971.113L274.841 972.257C281.28 963.018 284.4 950.842 284.4 935.913L282.4 935.913ZM273.2 971.113L271.521 970.027C265.844 978.8 258.517 985.347 249.526 989.714L250.4 991.513L251.274 993.312C260.949 988.613 268.823 981.56 274.879 972.2L273.2 971.113ZM250.4 991.513L248.4 991.513L248.4 997.913L250.4 997.913L252.4 997.913L252.4 991.513L250.4 991.513ZM250.4 997.913L249.506 999.702C258.271 1004.09 265.625 1010.4 271.576 1018.68L273.2 1017.51L274.824 1016.35C268.509 1007.56 260.662 1000.81 251.294 996.124L250.4 997.913ZM273.2 1017.51L271.559 1018.66C277.37 1026.99 280.4 1038.93 280.4 1054.71L282.4 1054.71L284.4 1054.71C284.4 1038.49 281.297 1025.63 274.841 1016.37L273.2 1017.51ZM282.4 1054.71L280.4 1054.71C280.4 1067.23 277.795 1078.23 272.641 1087.76L274.4 1088.71L276.159 1089.66C281.672 1079.47 284.4 1067.8 284.4 1054.71L282.4 1054.71ZM274.4 1088.71L272.621 1087.8C267.747 1097.29 260.304 1104.88 250.217 1110.57L251.2 1112.31L252.183 1114.06C262.896 1108.01 270.92 1099.87 276.179 1089.63L274.4 1088.71ZM251.2 1112.31L250.198 1110.58C240.447 1116.23 228.15 1119.11 213.2 1119.11L213.2 1121.11L213.2 1123.11C228.649 1123.11 241.686 1120.13 252.202 1114.04L251.2 1112.31ZM213.2 1121.11L213.2 1119.11L81.9999 1119.11L81.9999 1121.11L81.9999 1123.11L213.2 1123.11L213.2 1121.11ZM81.9999 1121.11L83.9999 1121.11L84 1079.91L82 1079.91L80 1079.91L79.9999 1121.11L81.9999 1121.11ZM82 1079.91L82 1081.91L210 1081.91L210 1079.91L210 1077.91L82 1077.91L82 1079.91ZM210 1079.91L210 1081.91C222.374 1081.91 232.162 1078.47 239.043 1071.3L237.6 1069.91L236.157 1068.53C230.238 1074.69 221.626 1077.91 210 1077.91L210 1079.91ZM237.6 1069.91L238.985 1071.36C246.153 1064.48 249.6 1054.69 249.6 1042.31L247.6 1042.31L245.6 1042.31C245.6 1053.94 242.381 1062.55 236.215 1068.47L237.6 1069.91ZM247.6 1042.31L249.6 1042.31C249.6 1029.04 245.292 1018.22 236.566 1010.05L235.2 1011.51L233.834 1012.97C241.641 1020.28 245.6 1029.99 245.6 1042.31L247.6 1042.31ZM235.2 1011.51L236.566 1010.05C227.811 1001.86 215.386 997.913 199.6 997.913L199.6 999.913L199.6 1001.91C214.748 1001.91 226.055 1005.7 233.834 1012.97L235.2 1011.51ZM199.6 999.913L199.6 997.913L82 997.913L82 999.913L82 1001.91L199.6 1001.91L199.6 999.913ZM82 999.913L84 999.913L84 958.713L82 958.713L80 958.713L80 999.913L82 999.913ZM82 958.713L82 960.713L210 960.713L210 958.713L210 956.713L82 956.713L82 958.713ZM210 958.713L210 960.713C222.374 960.713 232.162 957.266 239.043 950.098L237.6 948.713L236.157 947.328C230.238 953.494 221.626 956.713 210 956.713L210 958.713ZM237.6 948.713L238.985 950.156C246.153 943.275 249.6 933.487 249.6 921.113L247.6 921.113L245.6 921.113C245.6 932.739 242.381 941.351 236.215 947.271L237.6 948.713ZM247.6 921.113L249.6 921.113C249.6 907.839 245.292 897.015 236.566 888.853L235.2 890.313L233.834 891.774C241.641 899.078 245.6 908.787 245.6 921.113L247.6 921.113ZM235.2 890.313L236.566 888.853C227.811 880.663 215.386 876.713 199.6 876.713L199.6 878.713L199.6 880.713C214.748 880.713 226.055 884.497 233.834 891.774L235.2 890.313ZM199.6 878.713L199.6 876.713L82 876.713L82 878.713L82 880.713L199.6 880.713L199.6 878.713ZM82 878.713L84 878.713L84 837.513L82 837.513L80 837.513L80 878.713L82 878.713ZM1.99995 1164.48L1.99995 1162.48L-5.3457e-05 1162.48L-5.35444e-05 1164.48L1.99995 1164.48ZM279.2 1164.48L281.2 1164.48L281.2 1162.48L279.2 1162.48L279.2 1164.48ZM279.2 1204.88L279.2 1206.88L281.2 1206.88L281.2 1204.88L279.2 1204.88ZM250.8 1204.88L250.8 1202.88L248.8 1202.88L248.8 1204.88L250.8 1204.88ZM250.8 1211.28L248.8 1211.28L248.8 1212.44L249.802 1213.02L250.8 1211.28ZM274.4 1234.08L276.064 1232.97L276.057 1232.96L276.051 1232.95L274.4 1234.08ZM272.8 1323.68L271.076 1322.67L271.072 1322.68L271.068 1322.68L272.8 1323.68ZM238 1356.88L237.044 1355.13L237.026 1355.14L237.008 1355.15L238 1356.88ZM122.8 1357.28L121.831 1359.03L121.838 1359.04L121.844 1359.04L122.8 1357.28ZM88.3999 1324.08L86.6676 1325.08L86.6676 1325.08L88.3999 1324.08ZM81.1999 1246.08L79.3204 1245.4L79.3204 1245.4L81.1999 1246.08ZM93.1999 1224.88L91.7499 1223.5L91.7314 1223.52L91.7134 1223.54L93.1999 1224.88ZM108.8 1212.08L109.829 1213.8L110.8 1213.21L110.8 1212.08L108.8 1212.08ZM108.8 1205.68L110.8 1205.68L110.8 1203.68L108.8 1203.68L108.8 1205.68ZM1.99994 1205.68L-5.53453e-05 1205.68L-5.54327e-05 1207.68L1.99994 1207.68L1.99994 1205.68ZM129.6 1310.88L128.186 1312.3L128.186 1312.3L129.6 1310.88ZM231.2 1310.48L229.786 1309.07L229.778 1309.08L229.77 1309.08L231.2 1310.48ZM231.2 1222.48L232.63 1221.08L232.622 1221.08L232.614 1221.07L231.2 1222.48ZM129.6 1222.48L128.186 1221.07L128.178 1221.08L128.17 1221.08L129.6 1222.48ZM1.99995 1164.48L1.99995 1166.48L279.2 1166.48L279.2 1164.48L279.2 1162.48L1.99995 1162.48L1.99995 1164.48ZM279.2 1164.48L277.2 1164.48L277.2 1204.88L279.2 1204.88L281.2 1204.88L281.2 1164.48L279.2 1164.48ZM279.2 1204.88L279.2 1202.88L250.8 1202.88L250.8 1204.88L250.8 1206.88L279.2 1206.88L279.2 1204.88ZM250.8 1204.88L248.8 1204.88L248.8 1211.28L250.8 1211.28L252.8 1211.28L252.8 1204.88L250.8 1204.88ZM250.8 1211.28L249.802 1213.02C258.293 1217.9 265.951 1225.27 272.749 1235.21L274.4 1234.08L276.051 1232.95C268.983 1222.62 260.907 1214.79 251.798 1209.55L250.8 1211.28ZM274.4 1234.08L272.736 1235.19C279.362 1245.13 282.8 1259.48 282.8 1278.48L284.8 1278.48L286.8 1278.48C286.8 1259.08 283.305 1243.83 276.064 1232.97L274.4 1234.08ZM284.8 1278.48L282.8 1278.48C282.8 1294.68 278.886 1309.39 271.076 1322.67L272.8 1323.68L274.524 1324.7C282.713 1310.77 286.8 1295.35 286.8 1278.48L284.8 1278.48ZM272.8 1323.68L271.068 1322.68C263.267 1336.2 251.948 1347.02 237.044 1355.13L238 1356.88L238.955 1358.64C254.452 1350.21 266.333 1338.89 274.532 1324.68L272.8 1323.68ZM238 1356.88L237.008 1355.15C222.441 1363.47 204.668 1367.68 183.6 1367.68L183.6 1369.68L183.6 1371.68C205.199 1371.68 223.692 1367.36 238.992 1358.62L238 1356.88ZM183.6 1369.68L183.6 1367.68L177.6 1367.68L177.6 1369.68L177.6 1371.68L183.6 1371.68L183.6 1369.68ZM177.6 1369.68L177.6 1367.68C156.524 1367.68 138.601 1363.6 123.755 1355.53L122.8 1357.28L121.844 1359.04C137.398 1367.5 156.01 1371.68 177.6 1371.68L177.6 1369.68ZM122.8 1357.28L123.769 1355.53C109.131 1347.43 97.9385 1336.61 90.1323 1323.08L88.3999 1324.08L86.6676 1325.08C94.8613 1339.28 106.602 1350.6 121.831 1359.03L122.8 1357.28ZM88.3999 1324.08L90.1323 1323.08C82.3135 1309.53 78.3999 1294.68 78.3999 1278.48L76.3999 1278.48L74.3999 1278.48C74.3999 1295.35 78.4863 1310.9 86.6676 1325.08L88.3999 1324.08ZM76.3999 1278.48L78.3999 1278.48C78.3999 1265.84 79.9825 1255.28 83.0795 1246.77L81.1999 1246.08L79.3204 1245.4C76.0174 1254.48 74.3999 1265.53 74.3999 1278.48L76.3999 1278.48ZM81.1999 1246.08L83.0795 1246.77C86.2172 1238.14 90.102 1231.31 94.6865 1226.22L93.1999 1224.88L91.7134 1223.54C86.6979 1229.12 82.5827 1236.43 79.3204 1245.4L81.1999 1246.08ZM93.1999 1224.88L94.6499 1226.26C99.6142 1221.03 104.676 1216.89 109.829 1213.8L108.8 1212.08L107.771 1210.37C102.257 1213.68 96.919 1218.06 91.7499 1223.5L93.1999 1224.88ZM108.8 1212.08L110.8 1212.08L110.8 1205.68L108.8 1205.68L106.8 1205.68L106.8 1212.08L108.8 1212.08ZM108.8 1205.68L108.8 1203.68L1.99994 1203.68L1.99994 1205.68L1.99994 1207.68L108.8 1207.68L108.8 1205.68ZM1.99994 1205.68L3.99994 1205.68L3.99995 1164.48L1.99995 1164.48L-5.35444e-05 1164.48L-5.53453e-05 1205.68L1.99994 1205.68ZM112.4 1266.48L110.4 1266.48C110.4 1285.08 116.298 1300.41 128.186 1312.3L129.6 1310.88L131.014 1309.47C119.968 1298.42 114.4 1284.15 114.4 1266.48L112.4 1266.48ZM129.6 1310.88L128.186 1312.3C140.135 1324.25 157.11 1330.08 178.8 1330.08L178.8 1328.08L178.8 1326.08C157.823 1326.08 141.999 1320.45 131.014 1309.47L129.6 1310.88ZM178.8 1328.08L178.8 1330.08L182.4 1330.08L182.4 1328.08L182.4 1326.08L178.8 1326.08L178.8 1328.08ZM182.4 1328.08L182.4 1330.08C203.844 1330.08 220.688 1324.1 232.63 1311.88L231.2 1310.48L229.77 1309.08C218.778 1320.33 203.089 1326.08 182.4 1326.08L182.4 1328.08ZM231.2 1310.48L232.614 1311.9C244.496 1300.01 250.4 1284.82 250.4 1266.48L248.4 1266.48L246.4 1266.48C246.4 1283.88 240.837 1298.02 229.786 1309.07L231.2 1310.48ZM248.4 1266.48L250.4 1266.48C250.4 1248.4 244.49 1233.22 232.63 1221.08L231.2 1222.48L229.77 1223.88C240.843 1235.21 246.4 1249.36 246.4 1266.48L248.4 1266.48ZM231.2 1222.48L232.614 1221.07C220.67 1209.12 203.832 1203.28 182.4 1203.28L182.4 1205.28L182.4 1207.28C203.102 1207.28 218.797 1212.91 229.786 1223.9L231.2 1222.48ZM182.4 1205.28L182.4 1203.28L178.8 1203.28L178.8 1205.28L178.8 1207.28L182.4 1207.28L182.4 1205.28ZM178.8 1205.28L178.8 1203.28C157.11 1203.28 140.135 1209.12 128.186 1221.07L129.6 1222.48L131.014 1223.9C141.999 1212.91 157.823 1207.28 178.8 1207.28L178.8 1205.28ZM129.6 1222.48L128.17 1221.08C116.309 1233.22 110.4 1248.4 110.4 1266.48L112.4 1266.48L114.4 1266.48C114.4 1249.36 119.957 1235.21 131.03 1223.88L129.6 1222.48ZM81.9999 1404.73L81.9999 1402.73L79.9999 1402.73L79.9999 1404.73L81.9999 1404.73ZM362 1404.73L364 1404.73L364 1402.73L362 1402.73L362 1404.73ZM362 1445.93L362 1447.93L364 1447.93L364 1445.93L362 1445.93ZM81.9999 1445.93L79.9999 1445.93L79.9999 1447.93L81.9999 1447.93L81.9999 1445.93ZM81.9999 1404.73L81.9999 1406.73L362 1406.73L362 1404.73L362 1402.73L81.9999 1402.73L81.9999 1404.73ZM362 1404.73L360 1404.73L360 1445.93L362 1445.93L364 1445.93L364 1404.73L362 1404.73ZM362 1445.93L362 1443.93L81.9999 1443.93L81.9999 1445.93L81.9999 1447.93L362 1447.93L362 1445.93ZM81.9999 1445.93L83.9999 1445.93L83.9999 1404.73L81.9999 1404.73L79.9999 1404.73L79.9999 1445.93L81.9999 1445.93ZM88.7999 1529.08L87.0634 1528.08L87.0567 1528.1L87.0501 1528.11L88.7999 1529.08ZM124.4 1493.88L123.457 1492.11L123.439 1492.12L123.421 1492.13L124.4 1493.88ZM236.4 1493.88L235.444 1495.63L235.451 1495.64L235.457 1495.64L236.4 1493.88ZM272 1528.28L270.258 1529.26L270.263 1529.27L272 1528.28ZM272 1629.48L270.288 1628.44L270.276 1628.46L270.265 1628.48L272 1629.48ZM237.2 1663.08L238.144 1664.84L238.144 1664.84L237.2 1663.08ZM169.2 1675.08L167.2 1675.08L167.2 1677.08L169.2 1677.08L169.2 1675.08ZM169.2 1523.48L171.2 1523.48L171.2 1521.41L169.138 1521.48L169.2 1523.48ZM127.6 1540.68L126.151 1539.3L126.134 1539.32L126.117 1539.33L127.6 1540.68ZM122.8 1617.08L124.311 1615.77L124.3 1615.75L124.289 1615.74L122.8 1617.08ZM146.8 1635.48L148.576 1636.4L149.531 1634.55L147.652 1633.67L146.8 1635.48ZM129.2 1669.48L128.306 1671.26L130.069 1672.15L130.976 1670.4L129.2 1669.48ZM105.6 1653.08L106.913 1651.57L106.899 1651.56L106.885 1651.54L105.6 1653.08ZM84.7999 1625.48L83.0028 1626.35L83.0028 1626.35L84.7999 1625.48ZM200.8 1523.88L201.083 1521.9L198.8 1521.57L198.8 1523.88L200.8 1523.88ZM200.8 1633.08L198.8 1633.08L198.8 1635.22L200.942 1635.07L200.8 1633.08ZM235.6 1617.08L234.105 1615.75L234.095 1615.76L234.084 1615.77L235.6 1617.08ZM235.6 1541.48L234.084 1542.78L234.087 1542.78L235.6 1541.48ZM76.3999 1581.48L78.3999 1581.48C78.3999 1561.76 82.4733 1544.63 90.5497 1530.04L88.7999 1529.08L87.0501 1528.11C78.5932 1543.38 74.3999 1561.2 74.3999 1581.48L76.3999 1581.48ZM88.7999 1529.08L90.5364 1530.07C98.8875 1515.45 110.49 1503.98 125.379 1495.62L124.4 1493.88L123.421 1492.13C107.909 1500.84 95.7791 1512.83 87.0634 1528.08L88.7999 1529.08ZM124.4 1493.88L125.343 1495.64C140.477 1487.55 158.011 1483.48 178 1483.48L178 1481.48L178 1479.48C157.456 1479.48 139.256 1483.67 123.457 1492.11L124.4 1493.88ZM178 1481.48L178 1483.48L182.8 1483.48L182.8 1481.48L182.8 1479.48L178 1479.48L178 1481.48ZM182.8 1481.48L182.8 1483.48C203.062 1483.48 220.588 1487.55 235.444 1495.63L236.4 1493.88L237.355 1492.12C221.812 1483.67 203.605 1479.48 182.8 1479.48L182.8 1481.48ZM236.4 1493.88L235.457 1495.64C250.603 1503.73 262.186 1514.94 270.258 1529.26L272 1528.28L273.742 1527.29C265.281 1512.28 253.13 1500.55 237.343 1492.11L236.4 1493.88ZM272 1528.28L270.263 1529.27C278.602 1543.86 282.8 1560.71 282.8 1579.88L284.8 1579.88L286.8 1579.88C286.8 1560.11 282.464 1542.56 273.736 1527.28L272 1528.28ZM284.8 1579.88L282.8 1579.88C282.8 1598.5 278.607 1614.66 270.288 1628.44L272 1629.48L273.712 1630.51C282.46 1616.02 286.8 1599.12 286.8 1579.88L284.8 1579.88ZM272 1629.48L270.265 1628.48C262.189 1642.55 250.866 1653.49 236.255 1661.31L237.2 1663.08L238.144 1664.84C253.401 1656.67 265.277 1645.2 273.734 1630.47L272 1629.48ZM237.2 1663.08L236.255 1661.31C221.661 1669.13 204.53 1673.08 184.8 1673.08L184.8 1675.08L184.8 1677.08C205.07 1677.08 222.872 1673.02 238.144 1664.84L237.2 1663.08ZM184.8 1675.08L184.8 1673.08L169.2 1673.08L169.2 1675.08L169.2 1677.08L184.8 1677.08L184.8 1675.08ZM169.2 1675.08L171.2 1675.08L171.2 1523.48L169.2 1523.48L167.2 1523.48L167.2 1675.08L169.2 1675.08ZM169.2 1523.48L169.138 1521.48C151.364 1522.02 136.968 1527.93 126.151 1539.3L127.6 1540.68L129.049 1542.05C139.032 1531.56 152.369 1525.99 169.261 1525.47L169.2 1523.48ZM127.6 1540.68L126.117 1539.33C115.618 1550.94 110.4 1565.3 110.4 1582.28L112.4 1582.28L114.4 1582.28C114.4 1566.19 119.315 1552.81 129.083 1542.02L127.6 1540.68ZM112.4 1582.28L110.4 1582.28C110.4 1598 113.92 1610.17 121.311 1618.41L122.8 1617.08L124.289 1615.74C117.814 1608.52 114.4 1597.48 114.4 1582.28L112.4 1582.28ZM122.8 1617.08L121.289 1618.39C128.394 1626.58 136.615 1632.89 145.948 1637.29L146.8 1635.48L147.652 1633.67C138.851 1629.52 131.072 1623.57 124.311 1615.77L122.8 1617.08ZM146.8 1635.48L145.024 1634.56L127.424 1668.56L129.2 1669.48L130.976 1670.4L148.576 1636.4L146.8 1635.48ZM129.2 1669.48L130.094 1667.69C122.817 1664.05 115.09 1658.69 106.913 1651.57L105.6 1653.08L104.286 1654.58C112.643 1661.86 120.649 1667.44 128.306 1671.26L129.2 1669.48ZM105.6 1653.08L106.885 1651.54C98.8687 1644.82 92.0963 1635.86 86.5971 1624.6L84.7999 1625.48L83.0028 1626.35C88.7035 1638.03 95.7979 1647.46 104.315 1654.61L105.6 1653.08ZM84.7999 1625.48L86.5971 1624.6C81.1729 1613.49 78.3999 1599.15 78.3999 1581.48L76.3999 1581.48L74.3999 1581.48C74.3999 1599.53 77.2269 1614.53 83.0028 1626.35L84.7999 1625.48ZM200.8 1523.88L198.8 1523.88L198.8 1633.08L200.8 1633.08L202.8 1633.08L202.8 1523.88L200.8 1523.88ZM200.8 1633.08L200.942 1635.07C216.303 1633.97 228.439 1628.46 237.115 1618.38L235.6 1617.08L234.084 1615.77C226.228 1624.89 215.163 1630.04 200.657 1631.08L200.8 1633.08ZM235.6 1617.08L237.095 1618.4C246.017 1608.37 250.4 1595.33 250.4 1579.48L248.4 1579.48L246.4 1579.48C246.4 1594.56 242.249 1606.58 234.105 1615.75L235.6 1617.08ZM248.4 1579.48L250.4 1579.48C250.4 1563.62 246.017 1550.46 237.113 1540.17L235.6 1541.48L234.087 1542.78C242.25 1552.22 246.4 1564.4 246.4 1579.48L248.4 1579.48ZM235.6 1541.48L237.115 1540.17C228.475 1530.14 216.399 1524.08 201.083 1521.9L200.8 1523.88L200.517 1525.86C215.067 1527.93 226.192 1533.61 234.084 1542.78L235.6 1541.48Z" fill="#3EEAFF" mask="url(#path-1-outside-1_152_2)"/>
</g>
</svg>
